<svg width="25" height="27" viewBox="0 0 25 27" fill="none" xmlns="http://www.w3.org/2000/svg">
<path d="M21.875 9H20.3125V6.42857C20.3125 2.88 16.8125 0 12.5 0C8.1875 0 4.6875 2.88 4.6875 6.42857V9H3.125C1.40625 9 0 10.1571 0 11.5714V24.4286C0 25.8429 1.40625 27 3.125 27H21.875C23.5938 27 25 25.8429 25 24.4286V11.5714C25 10.1571 23.5938 9 21.875 9ZM12.5 20.5714C10.7812 20.5714 9.375 19.4143 9.375 18C9.375 16.5857 10.7812 15.4286 12.5 15.4286C14.2188 15.4286 15.625 16.5857 15.625 18C15.625 19.4143 14.2188 20.5714 12.5 20.5714ZM17.3438 9H7.65625V6.42857C7.65625 4.23 9.82812 2.44286 12.5 2.44286C15.1719 2.44286 17.3438 4.23 17.3438 6.42857V9Z" fill="white"/>
</svg>
